Patient4_TMGait_0pt8_01_left_01_GRF.mot
version=1
nRows=32
nColumns=19
inDegrees=no
endheader
time	F1x	F1y	F1z	M1x	M1y	M1z	F2x	F2y	F2z	M2x	M2y	M2z	EC1x	EC1y	EC1z	EC2x	EC2y	EC2z
0.14	-7.2612	-4.2391	6.2203	-0.88827	-5.431	0.22453	-29.166	712.3669	-68.8861	244.4815	78.65	735.6794	-0.0592	0.0182	-0.0073	-0.0462	0.0165	0.9585
0.1515	-5.0173	-2.0753	4.2324	-0.87762	-3.7742	1.1249	-28.2503	721.6218	-67.5984	247.6389	77.5957	743.9469	-0.0592	0.0182	-0.0073	-0.0462	0.0165	0.9585
0.163	-3.1702	-0.20478	2.552	-0.88065	-2.3886	1.9296	-26.8607	733.1405	-66.6281	251.6198	76.4781	753.1908	-0.0592	0.0182	-0.0073	-0.0462	0.0165	0.9585
0.1745	-1.7883	1.2605	1.2663	-0.89809	-1.3337	2.5743	-24.9271	746.0862	-66.0302	256.1422	75.3062	762.5308	-0.0592	0.0182	-0.0073	-0.0462	0.0165	0.9585
0.186	-0.84831	2.3115	0.38379	-0.92587	-0.61209	3.0494	-22.3729	759.2664	-65.7572	260.807	74.0338	770.8838	-0.0592	0.0182	-0.0073	-0.0462	0.0165	0.9585
0.1975	-0.27814	3.002	-0.16257	-0.96201	-0.16873	3.3693	-19.1215	771.3517	-65.7172	265.1703	72.5924	777.0916	-0.0592	0.0182	-0.0073	-0.0462	0.0165	0.9585
0.209	-0.0044993	3.3977	-0.43792	-0.9994	0.041825	3.5517	-15.1139	781.0506	-65.7938	268.8019	70.9007	780.0682	-0.0592	0.0182	-0.0073	-0.0462	0.0165	0.9585
0.2205	0.052927	3.5557	-0.53018	-1.0269	0.084681	3.6045	-10.3434	787.2848	-65.8754	271.3428	68.903	778.9699	-0.0592	0.0182	-0.0073	-0.0462	0.0165	0.9585
0.232	-0.052255	3.5128	-0.50002	-1.0269	0.0025605	3.5144	-4.8839	789.3208	-65.8706	272.5473	66.5839	773.2995	-0.0592	0.0182	-0.0073	-0.0462	0.0165	0.9585
0.2435	-0.26887	3.2809	-0.40595	-0.97864	-0.15459	3.2517	1.1235	786.8967	-65.6679	272.3288	63.918	763.0309	-0.0592	0.0182	-0.0073	-0.0462	0.0165	0.9585
0.255	-0.55715	2.8416	-0.2804	-0.85443	-0.3602	2.7742	7.4653	780.3161	-65.1807	270.7865	60.912	748.6744	-0.0592	0.0182	-0.0073	-0.0462	0.0165	0.9585
0.2665	-0.89313	2.1516	-0.14265	-0.6246	-0.59478	2.0107	13.8847	770.4109	-64.3309	268.1905	57.584	731.2358	-0.0592	0.0182	-0.0073	-0.0462	0.0165	0.9585
0.278	-1.2254	1.1446	-0.01139	-0.25731	-0.82286	0.86943	20.1186	758.3529	-63.1465	264.9121	54.0389	712.037	-0.0592	0.0182	-0.0073	-0.0462	0.0165	0.9585
0.2895	-1.4958	-0.23556	0.10953	0.27058	-1.0149	-0.72146	25.9346	745.4499	-61.7505	261.3548	50.4521	692.4691	-0.0592	0.0182	-0.0073	-0.0462	0.0165	0.9585
0.301	-1.6129	-2.0079	0.20219	0.9641	-1.1173	-2.7904	31.1342	732.9403	-60.3355	257.8899	47.0471	673.807	-0.0592	0.0182	-0.0073	-0.0462	0.0165	0.9585
0.3125	-1.4543	-4.0712	0.26072	1.7812	-1.0735	-5.2105	35.5572	721.8457	-59.1589	254.8113	44.0899	657.0998	-0.0592	0.0182	-0.0073	-0.0462	0.0165	0.9585
0.324	-0.86246	-6.1795	0.2539	2.6153	-0.78937	-7.6919	39.0636	712.9193	-58.4286	252.328	41.7999	643.1153	-0.0592	0.0182	-0.0073	-0.0462	0.0165	0.9585
0.3355	0.34184	-7.8329	0.14202	3.2656	-0.14965	-9.644	41.5808	706.6301	-58.3181	250.5615	40.3503	632.3127	-0.0592	0.0182	-0.0073	-0.0462	0.0165	0.9585
0.347	2.3703	-8.1915	-0.14108	3.4017	0.99879	-10.0878	43.1283	703.1755	-58.8843	249.553	39.7818	624.8678	-0.0592	0.0182	-0.0073	-0.0462	0.0165	0.9585
0.3585	5.3626	-6.0254	-0.66801	2.548	2.7984	-7.5744	43.8039	702.4426	-60.1149	249.2521	40.0528	620.6227	-0.0592	0.0182	-0.0073	-0.0462	0.0165	0.9585
0.37	9.3697	0.30997	-1.515	0.076126	5.3509	-0.17753	43.8255	704.0584	-61.9019	249.5374	41.0054	619.1423	-0.0592	0.0182	-0.0073	-0.0462	0.0165	0.9585
0.3815	14.1768	12.7744	-2.7417	-4.76	8.6394	14.4128	43.5232	707.3833	-64.0502	250.2166	42.3748	619.7229	-0.0592	0.0182	-0.0073	-0.0462	0.0165	0.9585
0.393	19.2093	33.4	-4.3488	-12.7312	12.4399	38.5872	43.2595	711.4627	-66.2806	251.0042	43.8135	621.358	-0.0592	0.0182	-0.0073	-0.0462	0.0165	0.9585
0.4045	23.3354	63.7788	-6.239	-24.435	16.2	74.2525	43.3953	714.9942	-68.2416	251.5066	44.911	622.7433	-0.0592	0.0182	-0.0073	-0.0462	0.0165	0.9585
0.416	24.7407	104.3635	-8.1461	-40.0291	18.9006	121.9667	44.1751	716.4027	-69.5354	251.2419	45.2546	622.3741	-0.0592	0.0182	-0.0073	-0.0462	0.0165	0.9585
0.4275	21.3367	153.991	-9.5573	-59.0531	19.1753	180.4537	45.686	713.8878	-69.7685	249.6503	44.494	618.5734	-0.0592	0.0182	-0.0073	-0.0462	0.0165	0.9585
0.439	12.6869	210.7111	-9.949	-80.7223	16.2517	247.4831	47.8111	705.523	-68.6175	246.1205	42.4065	609.6412	-0.0592	0.0182	-0.0073	-0.0462	0.0165	0.9585
0.4505	0.41929	271.6536	-8.8809	-103.8644	10.1844	319.5667	50.2738	689.3701	-65.8715	240.0183	38.9154	593.941	-0.0592	0.0182	-0.0073	-0.0462	0.0165	0.9585
0.462	-13.28	331.2317	-5.4643	-126.3154	0.84074	389.8238	52.63	663.5871	-61.5432	230.7206	34.191	569.9761	-0.0592	0.0182	-0.0073	-0.0462	0.0165	0.9585
0.4735	-26.3523	384.2367	0.52429	-146.117	-11.1486	451.7191	54.353	626.7889	-55.7836	217.7458	28.5557	536.676	-0.0592	0.0182	-0.0073	-0.0462	0.0165	0.9585
0.485	-37.6424	429.6601	8.0813	-162.9046	-24.1764	503.8015	54.8612	578.632	-48.8719	200.9486	22.4528	493.9144	-0.0592	0.0182	-0.0073	-0.0462	0.0165	0.9585
0.4965	-46.7149	469.3892	16.4081	-177.4264	-37.101	548.2455	53.6674	519.9668	-41.2678	180.59	16.4392	442.5391	-0.0592	0.0182	-0.0073	-0.0462	0.0165	0.9585
